<svg xmlns="http://www.w3.org/2000/svg" xmlns:xlink="http://www.w3.org/1999/xlink" width="1000" height="450" viewBox="0 0 1000 450"><style type="text/css">text{font-family:serif}</style><defs id="cardDefs"><symbol id="heart" viewBox="0 0 102 109"><path d="M51,109 c7,-35 51,-59 51,-80 c0,-16 -10,-29 -22,-29 c-16,0 -29,13 -29,29 c0,-16 -13,-29 -29,-29 c-12,0 -22,13 -22,29 c0,21 44,45 51,80z"/></symbol><symbol id="diamond" viewBox="0 0 72 112"><path d="M36,0 c -7.91,21.2 -20,40 -36,56 c 16,16 28.09,34.8 36,56 c 7.91,-21.2 20,-40 36,-56 c -16,-16 -28.09,-34.8 -36,-56 z"/></symbol><symbol id="spade" viewBox="0 0 100 106"><path d="M50, 0 c-14,30 -34,46 -42,54 a 19.5 19.5 0 1 0 33,15 c0,23 -6,33 -20,33 v4h58v-4 c-14,0 -20,-10 -20,-33 a 19.5 19.5 0 1 0 33,-15 c-8,-8 -28,-24 -42,-54z"/></symbol><symbol id="club" fill="#000" viewBox="-3 0 103 112"><path d="M38.5, 70.3198 a 22.5 22.5 0 1 1 -5 -32 a 22.5 22.5 0 1 1 32 0 a 22.5 22.5 0 1 1 -5 32 c 0,20 6,38 22,38 v4h-64v-4 c 14,0 22,-18 22,-38"/></symbol><symbol id="card" viewBox="0 0 100 160"><rect width="99" height="159" x=".5" y=".5" fill="#fff" stroke="#000" rx="8" ry="8"/></symbol><symbol id="card-back" viewBox="0 0 100 160"><use width="100" height="160" xlink:href="#card"/><pattern id="blue-diamonds2" width="24" height="24" x="0" y="0" patternTransform="scale(.785674, 1.031197) rotate(-45)" patternUnits="userSpaceOnUse" viewBox="0 0 24 24"><rect width="8" height="8" x="2.5" y="2.5" fill="none" stroke="#00f" stroke-width="2"/><rect width="8" height="8" x="13.5" y="2.5" fill="none" stroke="#00f" stroke-width="2"/><rect width="8" height="8" x="2.5" y="13.5" fill="none" stroke="#00f" stroke-width="2"/><rect width="8" height="8" x="13.5" y="13.5" fill="none" stroke="#00f" stroke-width="2"/></pattern><rect width="80" height="140" x="0" y="0" fill="url(#blue-diamonds2)" stroke="#00f" stroke-width="2" transform="translate(10,10)"/></symbol><symbol id="card-heart" viewBox="0 0 100 160"><use width="100" height="160" xlink:href="#card"/><use width="25" height="25" x="27" y="6" fill="red" xlink:href="#heart"/><use width="25" height="25" x="48" y="-154" fill="red" transform="scale(1,-1)" xlink:href="#heart"/></symbol><symbol id="card-club" viewBox="0 0 100 160"><use width="100" height="160" xlink:href="#card"/><use width="25" height="25" x="27" y="7" fill="#000" xlink:href="#club"/><use width="25" height="25" x="48" y="-153" fill="#000" transform="scale(1,-1)" xlink:href="#club"/></symbol><symbol id="card-diamond" viewBox="0 0 100 160"><use width="100" height="160" xlink:href="#card"/><use width="25" height="25" x="27" y="7" fill="red" xlink:href="#diamond"/><use width="25" height="25" x="48" y="-153" fill="red" transform="scale(1,-1)" xlink:href="#diamond"/></symbol><symbol id="card-spade" viewBox="0 0 100 160"><use width="100" height="160" xlink:href="#card"/><use width="25" height="25" x="27" y="7" fill="#000" xlink:href="#spade"/><use width="25" height="25" x="48" y="-153" fill="#000" transform="scale(1,-1)" xlink:href="#spade"/></symbol><symbol id="h1" viewBox="0 0 100 160"><use width="100" height="160" xlink:href="#card-heart"/><use width="60" height="80" x="20" y="40" fill="red" xlink:href="#heart"/><text x="8" y="28" style="fill:red;font-size:27">A</text><text x="-92" y="-132" transform="scale(-1,-1)" style="fill:red;font-size:27">A</text></symbol><symbol id="h2" viewBox="0 0 100 160"><use width="100" height="160" xlink:href="#card-heart"/><use width="20" height="20" x="40" y="40" fill="red" xlink:href="#heart"/><use width="20" height="20" x="40" y="-120" fill="red" transform="scale(1,-1)" xlink:href="#heart"/><text x="8" y="28" style="fill:red;font-size:27">2</text><text x="-92" y="-132" transform="scale(-1,-1)" style="fill:red;font-size:27">2</text></symbol><symbol id="h3" viewBox="0 0 100 160"><use width="100" height="160" xlink:href="#card-heart"/><use width="20" height="20" x="40" y="40" fill="red" xlink:href="#heart"/><use width="20" height="20" x="40" y="70" fill="red" xlink:href="#heart"/><use width="20" height="20" x="40" y="-120" fill="red" transform="scale(1,-1)" xlink:href="#heart"/><text x="8" y="28" style="fill:red;font-size:27">3</text><text x="-92" y="-132" transform="scale(-1,-1)" style="fill:red;font-size:27">3</text></symbol><symbol id="h4" viewBox="0 0 100 160"><use width="100" height="160" xlink:href="#card-heart"/><use width="20" height="20" x="20" y="40" fill="red" xlink:href="#heart"/><use width="20" height="20" x="60" y="40" fill="red" xlink:href="#heart"/><g transform="scale(1,-1)"><use width="20" height="20" x="20" y="-120" fill="red" xlink:href="#heart"/><use width="20" height="20" x="60" y="-120" fill="red" xlink:href="#heart"/></g><text x="8" y="28" style="fill:red;font-size:27">4</text><text x="-92" y="-132" transform="scale(-1,-1)" style="fill:red;font-size:27">4</text></symbol><symbol id="h5" viewBox="0 0 100 160"><use width="100" height="160" xlink:href="#card-heart"/><use width="20" height="20" x="20" y="40" fill="red" xlink:href="#heart"/><use width="20" height="20" x="60" y="40" fill="red" xlink:href="#heart"/><use width="20" height="20" x="40" y="70" fill="red" xlink:href="#heart"/><g transform="scale(1,-1)"><use width="20" height="20" x="20" y="-120" fill="red" xlink:href="#heart"/><use width="20" height="20" x="60" y="-120" fill="red" xlink:href="#heart"/></g><text x="8" y="28" style="fill:red;font-size:27">5</text><text x="-92" y="-132" transform="scale(-1,-1)" style="fill:red;font-size:27">5</text></symbol><symbol id="h6" viewBox="0 0 100 160"><use width="100" height="160" xlink:href="#card-heart"/><use width="20" height="20" x="20" y="40" fill="red" xlink:href="#heart"/><use width="20" height="20" x="60" y="40" fill="red" xlink:href="#heart"/><use width="20" height="20" x="20" y="70" fill="red" xlink:href="#heart"/><use width="20" height="20" x="60" y="70" fill="red" xlink:href="#heart"/><g transform="scale(1,-1)"><use width="20" height="20" x="20" y="-120" fill="red" xlink:href="#heart"/><use width="20" height="20" x="60" y="-120" fill="red" xlink:href="#heart"/></g><text x="8" y="28" style="fill:red;font-size:27">6</text><text x="-92" y="-132" transform="scale(-1,-1)" style="fill:red;font-size:27">6</text></symbol><symbol id="h7" viewBox="0 0 100 160"><use width="100" height="160" xlink:href="#card-heart"/><use width="20" height="20" x="20" y="40" fill="red" xlink:href="#heart"/><use width="20" height="20" x="60" y="40" fill="red" xlink:href="#heart"/><use width="20" height="20" x="20" y="70" fill="red" xlink:href="#heart"/><use width="20" height="20" x="60" y="70" fill="red" xlink:href="#heart"/><g transform="scale(1,-1)"><use width="20" height="20" x="20" y="-120" fill="red" xlink:href="#heart"/><use width="20" height="20" x="60" y="-120" fill="red" xlink:href="#heart"/><use width="20" height="20" x="40" y="-104" fill="red" xlink:href="#heart"/></g><text x="8" y="28" style="fill:red;font-size:27">7</text><text x="-92" y="-132" transform="scale(-1,-1)" style="fill:red;font-size:27">7</text></symbol><symbol id="h8" viewBox="0 0 100 160"><use width="100" height="160" xlink:href="#card-heart"/><use width="20" height="20" x="20" y="40" fill="red" xlink:href="#heart"/><use width="20" height="20" x="60" y="40" fill="red" xlink:href="#heart"/><use width="20" height="20" x="20" y="70" fill="red" xlink:href="#heart"/><use width="20" height="20" x="60" y="70" fill="red" xlink:href="#heart"/><use width="20" height="20" x="40" y="56" fill="red" xlink:href="#heart"/><g transform="scale(1,-1)"><use width="20" height="20" x="20" y="-120" fill="red" xlink:href="#heart"/><use width="20" height="20" x="60" y="-120" fill="red" xlink:href="#heart"/><use width="20" height="20" x="40" y="-104" fill="red" xlink:href="#heart"/></g><text x="8" y="28" style="fill:red;font-size:27">8</text><text x="-92" y="-132" transform="scale(-1,-1)" style="fill:red;font-size:27">8</text></symbol><symbol id="h9" viewBox="0 0 100 160"><use width="100" height="160" xlink:href="#card-heart"/><use width="20" height="20" x="17" y="35" fill="red" xlink:href="#heart"/><use width="20" height="20" x="63" y="35" fill="red" xlink:href="#heart"/><use width="20" height="20" x="17" y="57.5" fill="red" xlink:href="#heart"/><use width="20" height="20" x="63" y="57.5" fill="red" xlink:href="#heart"/><use width="20" height="20" x="40" y="70" fill="red" xlink:href="#heart"/><g transform="scale(1,-1)"><use width="20" height="20" x="17" y="-125" fill="red" xlink:href="#heart"/><use width="20" height="20" x="63" y="-125" fill="red" xlink:href="#heart"/><use width="20" height="20" x="17" y="-102.5" fill="red" xlink:href="#heart"/><use width="20" height="20" x="63" y="-102.5" fill="red" xlink:href="#heart"/></g><text x="8" y="28" style="fill:red;font-size:27">9</text><text x="-92" y="-132" transform="scale(-1,-1)" style="fill:red;font-size:27">9</text></symbol><symbol id="h10" viewBox="0 0 100 160"><use width="100" height="160" xlink:href="#card-heart"/><use width="20" height="20" x="17" y="35" fill="red" xlink:href="#heart"/><use width="20" height="20" x="63" y="35" fill="red" xlink:href="#heart"/><use width="20" height="20" x="17" y="57.5" fill="red" xlink:href="#heart"/><use width="20" height="20" x="63" y="57.5" fill="red" xlink:href="#heart"/><use width="20" height="20" x="40" y="47.5" fill="red" xlink:href="#heart"/><g transform="scale(1,-1)"><use width="20" height="20" x="17" y="-125" fill="red" xlink:href="#heart"/><use width="20" height="20" x="63" y="-125" fill="red" xlink:href="#heart"/><use width="20" height="20" x="17" y="-102.5" fill="red" xlink:href="#heart"/><use width="20" height="20" x="63" y="-102.5" fill="red" xlink:href="#heart"/><use width="20" height="20" x="40" y="-112.5" fill="red" xlink:href="#heart"/></g><text x="2" y="28" dx="0 -4" style="fill:red;font-size:27">10</text><text x="-98" y="-132" dx="0 -4" transform="scale(-1,-1)" style="fill:red;font-size:27">10</text></symbol><symbol id="h11" viewBox="0 0 100 160"><use width="100" height="160" xlink:href="#card-heart"/><text x="10" y="28" style="fill:red;font-size:27">J</text><text x="-90" y="-132" transform="scale(-1,-1)" style="fill:red;font-size:27">J</text></symbol><symbol id="h12" viewBox="0 0 100 160"><use width="100" height="160" xlink:href="#card-heart"/><text x="6" y="28" style="fill:red;font-size:27">Q</text><text x="-94" y="-132" transform="scale(-1,-1)" style="fill:red;font-size:27">Q</text></symbol><symbol id="h13" viewBox="0 0 100 160"><use width="100" height="160" xlink:href="#card-heart"/><text x="8" y="28" style="fill:red;font-size:27">K</text><text x="-92" y="-132" transform="scale(-1,-1)" style="fill:red;font-size:27">K</text></symbol><symbol id="c1" viewBox="0 0 100 160"><use width="100" height="160" xlink:href="#card-club"/><use width="60" height="80" x="20" y="40" fill="#000" xlink:href="#club"/><text x="8" y="28" style="fill:#000;font-size:27">A</text><text x="-92" y="-132" transform="scale(-1,-1)" style="fill:#000;font-size:27">A</text></symbol><symbol id="c2" viewBox="0 0 100 160"><use width="100" height="160" xlink:href="#card-club"/><use width="20" height="20" x="40" y="40" fill="#000" xlink:href="#club"/><use width="20" height="20" x="40" y="-120" fill="#000" transform="scale(1,-1)" xlink:href="#club"/><text x="8" y="28" style="fill:#000;font-size:27">2</text><text x="-92" y="-132" transform="scale(-1,-1)" style="fill:#000;font-size:27">2</text></symbol><symbol id="c3" viewBox="0 0 100 160"><use width="100" height="160" xlink:href="#card-club"/><use width="20" height="20" x="40" y="40" fill="#000" xlink:href="#club"/><use width="20" height="20" x="40" y="70" fill="#000" xlink:href="#club"/><use width="20" height="20" x="40" y="-120" fill="#000" transform="scale(1,-1)" xlink:href="#club"/><text x="8" y="28" style="fill:#000;font-size:27">3</text><text x="-92" y="-132" transform="scale(-1,-1)" style="fill:#000;font-size:27">3</text></symbol><symbol id="c4" viewBox="0 0 100 160"><use width="100" height="160" xlink:href="#card-club"/><use width="20" height="20" x="20" y="40" fill="#000" xlink:href="#club"/><use width="20" height="20" x="60" y="40" fill="#000" xlink:href="#club"/><g transform="scale(1,-1)"><use width="20" height="20" x="20" y="-120" fill="#000" xlink:href="#club"/><use width="20" height="20" x="60" y="-120" fill="#000" xlink:href="#club"/></g><text x="8" y="28" style="fill:#000;font-size:27">4</text><text x="-92" y="-132" transform="scale(-1,-1)" style="fill:#000;font-size:27">4</text></symbol><symbol id="c5" viewBox="0 0 100 160"><use width="100" height="160" xlink:href="#card-club"/><use width="20" height="20" x="20" y="40" fill="#000" xlink:href="#club"/><use width="20" height="20" x="60" y="40" fill="#000" xlink:href="#club"/><use width="20" height="20" x="40" y="70" fill="#000" xlink:href="#club"/><g transform="scale(1,-1)"><use width="20" height="20" x="20" y="-120" fill="#000" xlink:href="#club"/><use width="20" height="20" x="60" y="-120" fill="#000" xlink:href="#club"/></g><text x="8" y="28" style="fill:#000;font-size:27">5</text><text x="-92" y="-132" transform="scale(-1,-1)" style="fill:#000;font-size:27">5</text></symbol><symbol id="c6" viewBox="0 0 100 160"><use width="100" height="160" xlink:href="#card-club"/><use width="20" height="20" x="20" y="40" fill="#000" xlink:href="#club"/><use width="20" height="20" x="60" y="40" fill="#000" xlink:href="#club"/><use width="20" height="20" x="20" y="70" fill="#000" xlink:href="#club"/><use width="20" height="20" x="60" y="70" fill="#000" xlink:href="#club"/><g transform="scale(1,-1)"><use width="20" height="20" x="20" y="-120" fill="#000" xlink:href="#club"/><use width="20" height="20" x="60" y="-120" fill="#000" xlink:href="#club"/></g><text x="8" y="28" style="fill:#000;font-size:27">6</text><text x="-92" y="-132" transform="scale(-1,-1)" style="fill:#000;font-size:27">6</text></symbol><symbol id="c7" viewBox="0 0 100 160"><use width="100" height="160" xlink:href="#card-club"/><use width="20" height="20" x="20" y="40" fill="#000" xlink:href="#club"/><use width="20" height="20" x="60" y="40" fill="#000" xlink:href="#club"/><use width="20" height="20" x="20" y="70" fill="#000" xlink:href="#club"/><use width="20" height="20" x="60" y="70" fill="#000" xlink:href="#club"/><g transform="scale(1,-1)"><use width="20" height="20" x="20" y="-120" fill="#000" xlink:href="#club"/><use width="20" height="20" x="60" y="-120" fill="#000" xlink:href="#club"/><use width="20" height="20" x="40" y="-104" fill="#000" xlink:href="#club"/></g><text x="8" y="28" style="fill:#000;font-size:27">7</text><text x="-92" y="-132" transform="scale(-1,-1)" style="fill:#000;font-size:27">7</text></symbol><symbol id="c8" viewBox="0 0 100 160"><use width="100" height="160" xlink:href="#card-club"/><use width="20" height="20" x="20" y="40" fill="#000" xlink:href="#club"/><use width="20" height="20" x="60" y="40" fill="#000" xlink:href="#club"/><use width="20" height="20" x="20" y="70" fill="#000" xlink:href="#club"/><use width="20" height="20" x="60" y="70" fill="#000" xlink:href="#club"/><use width="20" height="20" x="40" y="56" fill="#000" xlink:href="#club"/><g transform="scale(1,-1)"><use width="20" height="20" x="20" y="-120" fill="#000" xlink:href="#club"/><use width="20" height="20" x="60" y="-120" fill="#000" xlink:href="#club"/><use width="20" height="20" x="40" y="-104" fill="#000" xlink:href="#club"/></g><text x="8" y="28" style="fill:#000;font-size:27">8</text><text x="-92" y="-132" transform="scale(-1,-1)" style="fill:#000;font-size:27">8</text></symbol><symbol id="c9" viewBox="0 0 100 160"><use width="100" height="160" xlink:href="#card-club"/><use width="20" height="20" x="17" y="35" fill="#000" xlink:href="#club"/><use width="20" height="20" x="63" y="35" fill="#000" xlink:href="#club"/><use width="20" height="20" x="17" y="57.5" fill="#000" xlink:href="#club"/><use width="20" height="20" x="63" y="57.5" fill="#000" xlink:href="#club"/><use width="20" height="20" x="40" y="70" fill="#000" xlink:href="#club"/><g transform="scale(1,-1)"><use width="20" height="20" x="17" y="-125" fill="#000" xlink:href="#club"/><use width="20" height="20" x="63" y="-125" fill="#000" xlink:href="#club"/><use width="20" height="20" x="17" y="-102.5" fill="#000" xlink:href="#club"/><use width="20" height="20" x="63" y="-102.5" fill="#000" xlink:href="#club"/></g><text x="8" y="28" style="fill:#000;font-size:27">9</text><text x="-92" y="-132" transform="scale(-1,-1)" style="fill:#000;font-size:27">9</text></symbol><symbol id="c10" viewBox="0 0 100 160"><use width="100" height="160" xlink:href="#card-club"/><use width="20" height="20" x="17" y="35" fill="#000" xlink:href="#club"/><use width="20" height="20" x="63" y="35" fill="#000" xlink:href="#club"/><use width="20" height="20" x="17" y="57.5" fill="#000" xlink:href="#club"/><use width="20" height="20" x="63" y="57.5" fill="#000" xlink:href="#club"/><use width="20" height="20" x="40" y="47.5" fill="#000" xlink:href="#club"/><g transform="scale(1,-1)"><use width="20" height="20" x="17" y="-125" fill="#000" xlink:href="#club"/><use width="20" height="20" x="63" y="-125" fill="#000" xlink:href="#club"/><use width="20" height="20" x="17" y="-102.5" fill="#000" xlink:href="#club"/><use width="20" height="20" x="63" y="-102.5" fill="#000" xlink:href="#club"/><use width="20" height="20" x="40" y="-112.5" fill="#000" xlink:href="#club"/></g><text x="2" y="28" dx="0 -4" style="fill:#000;font-size:27">10</text><text x="-98" y="-132" dx="0 -4" transform="scale(-1,-1)" style="fill:#000;font-size:27">10</text></symbol><symbol id="c11" viewBox="0 0 100 160"><use width="100" height="160" xlink:href="#card-club"/><text x="10" y="28" style="fill:#000;font-size:27">J</text><text x="-90" y="-132" transform="scale(-1,-1)" style="fill:#000;font-size:27">J</text></symbol><symbol id="c12" viewBox="0 0 100 160"><use width="100" height="160" xlink:href="#card-club"/><text x="6" y="28" style="fill:#000;font-size:27">Q</text><text x="-94" y="-132" transform="scale(-1,-1)" style="fill:#000;font-size:27">Q</text></symbol><symbol id="c13" viewBox="0 0 100 160"><use width="100" height="160" xlink:href="#card-club"/><text x="8" y="28" style="fill:#000;font-size:27">K</text><text x="-92" y="-132" transform="scale(-1,-1)" style="fill:#000;font-size:27">K</text></symbol><symbol id="d1" viewBox="0 0 100 160"><use width="100" height="160" xlink:href="#card-diamond"/><use width="60" height="80" x="20" y="40" fill="red" xlink:href="#diamond"/><text x="8" y="28" style="fill:red;font-size:27">A</text><text x="-92" y="-132" transform="scale(-1,-1)" style="fill:red;font-size:27">A</text></symbol><symbol id="d2" viewBox="0 0 100 160"><use width="100" height="160" xlink:href="#card-diamond"/><use width="20" height="20" x="40" y="40" fill="red" xlink:href="#diamond"/><use width="20" height="20" x="40" y="-120" fill="red" transform="scale(1,-1)" xlink:href="#diamond"/><text x="8" y="28" style="fill:red;font-size:27">2</text><text x="-92" y="-132" transform="scale(-1,-1)" style="fill:red;font-size:27">2</text></symbol><symbol id="d3" viewBox="0 0 100 160"><use width="100" height="160" xlink:href="#card-diamond"/><use width="20" height="20" x="40" y="40" fill="red" xlink:href="#diamond"/><use width="20" height="20" x="40" y="70" fill="red" xlink:href="#diamond"/><use width="20" height="20" x="40" y="-120" fill="red" transform="scale(1,-1)" xlink:href="#diamond"/><text x="8" y="28" style="fill:red;font-size:27">3</text><text x="-92" y="-132" transform="scale(-1,-1)" style="fill:red;font-size:27">3</text></symbol><symbol id="d4" viewBox="0 0 100 160"><use width="100" height="160" xlink:href="#card-diamond"/><use width="20" height="20" x="20" y="40" fill="red" xlink:href="#diamond"/><use width="20" height="20" x="60" y="40" fill="red" xlink:href="#diamond"/><g transform="scale(1,-1)"><use width="20" height="20" x="20" y="-120" fill="red" xlink:href="#diamond"/><use width="20" height="20" x="60" y="-120" fill="red" xlink:href="#diamond"/></g><text x="8" y="28" style="fill:red;font-size:27">4</text><text x="-92" y="-132" transform="scale(-1,-1)" style="fill:red;font-size:27">4</text></symbol><symbol id="d5" viewBox="0 0 100 160"><use width="100" height="160" xlink:href="#card-diamond"/><use width="20" height="20" x="20" y="40" fill="red" xlink:href="#diamond"/><use width="20" height="20" x="60" y="40" fill="red" xlink:href="#diamond"/><use width="20" height="20" x="40" y="70" fill="red" xlink:href="#diamond"/><g transform="scale(1,-1)"><use width="20" height="20" x="20" y="-120" fill="red" xlink:href="#diamond"/><use width="20" height="20" x="60" y="-120" fill="red" xlink:href="#diamond"/></g><text x="8" y="28" style="fill:red;font-size:27">5</text><text x="-92" y="-132" transform="scale(-1,-1)" style="fill:red;font-size:27">5</text></symbol><symbol id="d6" viewBox="0 0 100 160"><use width="100" height="160" xlink:href="#card-diamond"/><use width="20" height="20" x="20" y="40" fill="red" xlink:href="#diamond"/><use width="20" height="20" x="60" y="40" fill="red" xlink:href="#diamond"/><use width="20" height="20" x="20" y="70" fill="red" xlink:href="#diamond"/><use width="20" height="20" x="60" y="70" fill="red" xlink:href="#diamond"/><g transform="scale(1,-1)"><use width="20" height="20" x="20" y="-120" fill="red" xlink:href="#diamond"/><use width="20" height="20" x="60" y="-120" fill="red" xlink:href="#diamond"/></g><text x="8" y="28" style="fill:red;font-size:27">6</text><text x="-92" y="-132" transform="scale(-1,-1)" style="fill:red;font-size:27">6</text></symbol><symbol id="d7" viewBox="0 0 100 160"><use width="100" height="160" xlink:href="#card-diamond"/><use width="20" height="20" x="20" y="40" fill="red" xlink:href="#diamond"/><use width="20" height="20" x="60" y="40" fill="red" xlink:href="#diamond"/><use width="20" height="20" x="20" y="70" fill="red" xlink:href="#diamond"/><use width="20" height="20" x="60" y="70" fill="red" xlink:href="#diamond"/><g transform="scale(1,-1)"><use width="20" height="20" x="20" y="-120" fill="red" xlink:href="#diamond"/><use width="20" height="20" x="60" y="-120" fill="red" xlink:href="#diamond"/><use width="20" height="20" x="40" y="-104" fill="red" xlink:href="#diamond"/></g><text x="8" y="28" style="fill:red;font-size:27">7</text><text x="-92" y="-132" transform="scale(-1,-1)" style="fill:red;font-size:27">7</text></symbol><symbol id="d8" viewBox="0 0 100 160"><use width="100" height="160" xlink:href="#card-diamond"/><use width="20" height="20" x="20" y="40" fill="red" xlink:href="#diamond"/><use width="20" height="20" x="60" y="40" fill="red" xlink:href="#diamond"/><use width="20" height="20" x="20" y="70" fill="red" xlink:href="#diamond"/><use width="20" height="20" x="60" y="70" fill="red" xlink:href="#diamond"/><use width="20" height="20" x="40" y="56" fill="red" xlink:href="#diamond"/><g transform="scale(1,-1)"><use width="20" height="20" x="20" y="-120" fill="red" xlink:href="#diamond"/><use width="20" height="20" x="60" y="-120" fill="red" xlink:href="#diamond"/><use width="20" height="20" x="40" y="-104" fill="red" xlink:href="#diamond"/></g><text x="8" y="28" style="fill:red;font-size:27">8</text><text x="-92" y="-132" transform="scale(-1,-1)" style="fill:red;font-size:27">8</text></symbol><symbol id="d9" viewBox="0 0 100 160"><use width="100" height="160" xlink:href="#card-diamond"/><use width="20" height="20" x="17" y="35" fill="red" xlink:href="#diamond"/><use width="20" height="20" x="63" y="35" fill="red" xlink:href="#diamond"/><use width="20" height="20" x="17" y="57.5" fill="red" xlink:href="#diamond"/><use width="20" height="20" x="63" y="57.5" fill="red" xlink:href="#diamond"/><use width="20" height="20" x="40" y="70" fill="red" xlink:href="#diamond"/><g transform="scale(1,-1)"><use width="20" height="20" x="17" y="-125" fill="red" xlink:href="#diamond"/><use width="20" height="20" x="63" y="-125" fill="red" xlink:href="#diamond"/><use width="20" height="20" x="17" y="-102.5" fill="red" xlink:href="#diamond"/><use width="20" height="20" x="63" y="-102.5" fill="red" xlink:href="#diamond"/></g><text x="8" y="28" style="fill:red;font-size:27">9</text><text x="-92" y="-132" transform="scale(-1,-1)" style="fill:red;font-size:27">9</text></symbol><symbol id="d10" viewBox="0 0 100 160"><use width="100" height="160" xlink:href="#card-diamond"/><use width="20" height="20" x="17" y="35" fill="red" xlink:href="#diamond"/><use width="20" height="20" x="63" y="35" fill="red" xlink:href="#diamond"/><use width="20" height="20" x="17" y="57.5" fill="red" xlink:href="#diamond"/><use width="20" height="20" x="63" y="57.5" fill="red" xlink:href="#diamond"/><use width="20" height="20" x="40" y="47.5" fill="red" xlink:href="#diamond"/><g transform="scale(1,-1)"><use width="20" height="20" x="17" y="-125" fill="red" xlink:href="#diamond"/><use width="20" height="20" x="63" y="-125" fill="red" xlink:href="#diamond"/><use width="20" height="20" x="17" y="-102.5" fill="red" xlink:href="#diamond"/><use width="20" height="20" x="63" y="-102.5" fill="red" xlink:href="#diamond"/><use width="20" height="20" x="40" y="-112.5" fill="red" xlink:href="#diamond"/></g><text x="2" y="28" dx="0 -4" style="fill:red;font-size:27">10</text><text x="-98" y="-132" dx="0 -4" transform="scale(-1,-1)" style="fill:red;font-size:27">10</text></symbol><symbol id="d11" viewBox="0 0 100 160"><use width="100" height="160" xlink:href="#card-diamond"/><text x="10" y="28" style="fill:red;font-size:27">J</text><text x="-90" y="-132" transform="scale(-1,-1)" style="fill:red;font-size:27">J</text></symbol><symbol id="d12" viewBox="0 0 100 160"><use width="100" height="160" xlink:href="#card-diamond"/><text x="6" y="28" style="fill:red;font-size:27">Q</text><text x="-94" y="-132" transform="scale(-1,-1)" style="fill:red;font-size:27">Q</text></symbol><symbol id="d13" viewBox="0 0 100 160"><use width="100" height="160" xlink:href="#card-diamond"/><text x="8" y="28" style="fill:red;font-size:27">K</text><text x="-92" y="-132" transform="scale(-1,-1)" style="fill:red;font-size:27">K</text></symbol><symbol id="s1" viewBox="0 0 100 160"><use width="100" height="160" xlink:href="#card-spade"/><use width="60" height="80" x="20" y="40" fill="#000" xlink:href="#spade"/><text x="8" y="28" style="fill:#000;font-size:27">A</text><text x="-92" y="-132" transform="scale(-1,-1)" style="fill:#000;font-size:27">A</text></symbol><symbol id="s2" viewBox="0 0 100 160"><use width="100" height="160" xlink:href="#card-spade"/><use width="20" height="20" x="40" y="40" fill="#000" xlink:href="#spade"/><use width="20" height="20" x="40" y="-120" fill="#000" transform="scale(1,-1)" xlink:href="#spade"/><text x="8" y="28" style="fill:#000;font-size:27">2</text><text x="-92" y="-132" transform="scale(-1,-1)" style="fill:#000;font-size:27">2</text></symbol><symbol id="s3" viewBox="0 0 100 160"><use width="100" height="160" xlink:href="#card-spade"/><use width="20" height="20" x="40" y="40" fill="#000" xlink:href="#spade"/><use width="20" height="20" x="40" y="70" fill="#000" xlink:href="#spade"/><use width="20" height="20" x="40" y="-120" fill="#000" transform="scale(1,-1)" xlink:href="#spade"/><text x="8" y="28" style="fill:#000;font-size:27">3</text><text x="-92" y="-132" transform="scale(-1,-1)" style="fill:#000;font-size:27">3</text></symbol><symbol id="s4" viewBox="0 0 100 160"><use width="100" height="160" xlink:href="#card-spade"/><use width="20" height="20" x="20" y="40" fill="#000" xlink:href="#spade"/><use width="20" height="20" x="60" y="40" fill="#000" xlink:href="#spade"/><g transform="scale(1,-1)"><use width="20" height="20" x="20" y="-120" fill="#000" xlink:href="#spade"/><use width="20" height="20" x="60" y="-120" fill="#000" xlink:href="#spade"/></g><text x="8" y="28" style="fill:#000;font-size:27">4</text><text x="-92" y="-132" transform="scale(-1,-1)" style="fill:#000;font-size:27">4</text></symbol><symbol id="s5" viewBox="0 0 100 160"><use width="100" height="160" xlink:href="#card-spade"/><use width="20" height="20" x="20" y="40" fill="#000" xlink:href="#spade"/><use width="20" height="20" x="60" y="40" fill="#000" xlink:href="#spade"/><use width="20" height="20" x="40" y="70" fill="#000" xlink:href="#spade"/><g transform="scale(1,-1)"><use width="20" height="20" x="20" y="-120" fill="#000" xlink:href="#spade"/><use width="20" height="20" x="60" y="-120" fill="#000" xlink:href="#spade"/></g><text x="8" y="28" style="fill:#000;font-size:27">5</text><text x="-92" y="-132" transform="scale(-1,-1)" style="fill:#000;font-size:27">5</text></symbol><symbol id="s6" viewBox="0 0 100 160"><use width="100" height="160" xlink:href="#card-spade"/><use width="20" height="20" x="20" y="40" fill="#000" xlink:href="#spade"/><use width="20" height="20" x="60" y="40" fill="#000" xlink:href="#spade"/><use width="20" height="20" x="20" y="70" fill="#000" xlink:href="#spade"/><use width="20" height="20" x="60" y="70" fill="#000" xlink:href="#spade"/><g transform="scale(1,-1)"><use width="20" height="20" x="20" y="-120" fill="#000" xlink:href="#spade"/><use width="20" height="20" x="60" y="-120" fill="#000" xlink:href="#spade"/></g><text x="8" y="28" style="fill:#000;font-size:27">6</text><text x="-92" y="-132" transform="scale(-1,-1)" style="fill:#000;font-size:27">6</text></symbol><symbol id="s7" viewBox="0 0 100 160"><use width="100" height="160" xlink:href="#card-spade"/><use width="20" height="20" x="20" y="40" fill="#000" xlink:href="#spade"/><use width="20" height="20" x="60" y="40" fill="#000" xlink:href="#spade"/><use width="20" height="20" x="20" y="70" fill="#000" xlink:href="#spade"/><use width="20" height="20" x="60" y="70" fill="#000" xlink:href="#spade"/><g transform="scale(1,-1)"><use width="20" height="20" x="20" y="-120" fill="#000" xlink:href="#spade"/><use width="20" height="20" x="60" y="-120" fill="#000" xlink:href="#spade"/><use width="20" height="20" x="40" y="-104" fill="#000" xlink:href="#spade"/></g><text x="8" y="28" style="fill:#000;font-size:27">7</text><text x="-92" y="-132" transform="scale(-1,-1)" style="fill:#000;font-size:27">7</text></symbol><symbol id="s8" viewBox="0 0 100 160"><use width="100" height="160" xlink:href="#card-spade"/><use width="20" height="20" x="20" y="40" fill="#000" xlink:href="#spade"/><use width="20" height="20" x="60" y="40" fill="#000" xlink:href="#spade"/><use width="20" height="20" x="20" y="70" fill="#000" xlink:href="#spade"/><use width="20" height="20" x="60" y="70" fill="#000" xlink:href="#spade"/><use width="20" height="20" x="40" y="56" fill="#000" xlink:href="#spade"/><g transform="scale(1,-1)"><use width="20" height="20" x="20" y="-120" fill="#000" xlink:href="#spade"/><use width="20" height="20" x="60" y="-120" fill="#000" xlink:href="#spade"/><use width="20" height="20" x="40" y="-104" fill="#000" xlink:href="#spade"/></g><text x="8" y="28" style="fill:#000;font-size:27">8</text><text x="-92" y="-132" transform="scale(-1,-1)" style="fill:#000;font-size:27">8</text></symbol><symbol id="s9" viewBox="0 0 100 160"><use width="100" height="160" xlink:href="#card-spade"/><use width="20" height="20" x="17" y="35" fill="#000" xlink:href="#spade"/><use width="20" height="20" x="63" y="35" fill="#000" xlink:href="#spade"/><use width="20" height="20" x="17" y="57.5" fill="#000" xlink:href="#spade"/><use width="20" height="20" x="63" y="57.5" fill="#000" xlink:href="#spade"/><use width="20" height="20" x="40" y="70" fill="#000" xlink:href="#spade"/><g transform="scale(1,-1)"><use width="20" height="20" x="17" y="-125" fill="#000" xlink:href="#spade"/><use width="20" height="20" x="63" y="-125" fill="#000" xlink:href="#spade"/><use width="20" height="20" x="17" y="-102.5" fill="#000" xlink:href="#spade"/><use width="20" height="20" x="63" y="-102.5" fill="#000" xlink:href="#spade"/></g><text x="8" y="28" style="fill:#000;font-size:27">9</text><text x="-92" y="-132" transform="scale(-1,-1)" style="fill:#000;font-size:27">9</text></symbol><symbol id="s10" viewBox="0 0 100 160"><use width="100" height="160" xlink:href="#card-spade"/><use width="20" height="20" x="17" y="35" fill="#000" xlink:href="#spade"/><use width="20" height="20" x="63" y="35" fill="#000" xlink:href="#spade"/><use width="20" height="20" x="17" y="57.5" fill="#000" xlink:href="#spade"/><use width="20" height="20" x="63" y="57.5" fill="#000" xlink:href="#spade"/><use width="20" height="20" x="40" y="47.5" fill="#000" xlink:href="#spade"/><g transform="scale(1,-1)"><use width="20" height="20" x="17" y="-125" fill="#000" xlink:href="#spade"/><use width="20" height="20" x="63" y="-125" fill="#000" xlink:href="#spade"/><use width="20" height="20" x="17" y="-102.5" fill="#000" xlink:href="#spade"/><use width="20" height="20" x="63" y="-102.5" fill="#000" xlink:href="#spade"/><use width="20" height="20" x="40" y="-112.5" fill="#000" xlink:href="#spade"/></g><text x="2" y="28" dx="0 -4" style="fill:#000;font-size:27">10</text><text x="-98" y="-132" dx="0 -4" transform="scale(-1,-1)" style="fill:#000;font-size:27">10</text></symbol><symbol id="s11" viewBox="0 0 100 160"><use width="100" height="160" xlink:href="#card-spade"/><text x="10" y="28" style="fill:#000;font-size:27">J</text><text x="-90" y="-132" transform="scale(-1,-1)" style="fill:#000;font-size:27">J</text></symbol><symbol id="s12" viewBox="0 0 100 160"><use width="100" height="160" xlink:href="#card-spade"/><text x="6" y="28" style="fill:#000;font-size:27">Q</text><text x="-94" y="-132" transform="scale(-1,-1)" style="fill:#000;font-size:27">Q</text></symbol><symbol id="s13" viewBox="0 0 100 160"><use width="100" height="160" xlink:href="#card-spade"/><text x="8" y="28" style="fill:#000;font-size:27">K</text><text x="-92" y="-132" transform="scale(-1,-1)" style="fill:#000;font-size:27">K</text></symbol></defs><use width="65" height="105" x="5" y="5" xlink:href="#h1"/><use width="65" height="105" x="80" y="5" xlink:href="#h2"/><use width="65" height="105" x="155" y="5" xlink:href="#h3"/><use width="65" height="105" x="230" y="5" xlink:href="#h4"/><use width="65" height="105" x="305" y="5" xlink:href="#h5"/><use width="65" height="105" x="380" y="5" xlink:href="#h6"/><use width="65" height="105" x="455" y="5" xlink:href="#h7"/><use width="65" height="105" x="530" y="5" xlink:href="#h8"/><use width="65" height="105" x="605" y="5" xlink:href="#h9"/><use width="65" height="105" x="680" y="5" xlink:href="#h10"/><use width="65" height="105" x="755" y="5" xlink:href="#h11"/><use width="65" height="105" x="830" y="5" xlink:href="#h12"/><use width="65" height="105" x="905" y="5" xlink:href="#h13"/><use width="65" height="105" x="5" y="115" xlink:href="#s1"/><use width="65" height="105" x="80" y="115" xlink:href="#s2"/><use width="65" height="105" x="155" y="115" xlink:href="#s3"/><use width="65" height="105" x="230" y="115" xlink:href="#s4"/><use width="65" height="105" x="305" y="115" xlink:href="#s5"/><use width="65" height="105" x="380" y="115" xlink:href="#s6"/><use width="65" height="105" x="455" y="115" xlink:href="#s7"/><use width="65" height="105" x="530" y="115" xlink:href="#s8"/><use width="65" height="105" x="605" y="115" xlink:href="#s9"/><use width="65" height="105" x="680" y="115" xlink:href="#s10"/><use width="65" height="105" x="755" y="115" xlink:href="#s11"/><use width="65" height="105" x="830" y="115" xlink:href="#s12"/><use width="65" height="105" x="905" y="115" xlink:href="#s13"/><use width="65" height="105" x="5" y="225" xlink:href="#d1"/><use width="65" height="105" x="80" y="225" xlink:href="#d2"/><use width="65" height="105" x="155" y="225" xlink:href="#d3"/><use width="65" height="105" x="230" y="225" xlink:href="#d4"/><use width="65" height="105" x="305" y="225" xlink:href="#d5"/><use width="65" height="105" x="380" y="225" xlink:href="#d6"/><use width="65" height="105" x="455" y="225" xlink:href="#d7"/><use width="65" height="105" x="530" y="225" xlink:href="#d8"/><use width="65" height="105" x="605" y="225" xlink:href="#d9"/><use width="65" height="105" x="680" y="225" xlink:href="#d10"/><use width="65" height="105" x="755" y="225" xlink:href="#d11"/><use width="65" height="105" x="830" y="225" xlink:href="#d12"/><use width="65" height="105" x="905" y="225" xlink:href="#d13"/><use width="65" height="105" x="5" y="335" xlink:href="#c1"/><use width="65" height="105" x="80" y="335" xlink:href="#c2"/><use width="65" height="105" x="155" y="335" xlink:href="#c3"/><use width="65" height="105" x="230" y="335" xlink:href="#c4"/><use width="65" height="105" x="305" y="335" xlink:href="#c5"/><use width="65" height="105" x="380" y="335" xlink:href="#c6"/><use width="65" height="105" x="455" y="335" xlink:href="#c7"/><use width="65" height="105" x="530" y="335" xlink:href="#c8"/><use width="65" height="105" x="605" y="335" xlink:href="#c9"/><use width="65" height="105" x="680" y="335" xlink:href="#c10"/><use width="65" height="105" x="755" y="335" xlink:href="#c11"/><use width="65" height="105" x="830" y="335" xlink:href="#c12"/><use width="65" height="105" x="905" y="335" xlink:href="#c13"/></svg>