<?xml-stylesheet type="text/css" href="extension.css" ?><svg xmlns="http://www.w3.org/2000/svg" xmlns:batik="http://xml.apache.org/batik/ext" xmlns:xlink="http://www.w3.org/1999/xlink" id="body" width="450" height="500" version="1.2" viewBox="0 0 450 500" xml:space="preserve"><title>Star Extension Tag</title><g id="testContent" class="legend" style="text-anchor:middle"><text x="225" y="40" class="title">Color Switch Paint Server</text><path fill="none" stroke="#000" stroke-width="10" d="M25,135 c50,-50 50,50 100,0 c50,-50 50,50 100,0 c50,-50 50,50 100,0c50,-50 50,50 100,0"/><path fill="none" stroke="#000" stroke-width="10" d="M25,275 c50,-50 50,50 100,0 c50,-50 50,50 100,0 c50,-50 50,50 100,0c50,-50 50,50 100,0"/><path fill="none" stroke="#000" stroke-width="10" d="M25,415 c50,-50 50,50 100,0 c50,-50 50,50 100,0 c50,-50 50,50 100,0c50,-50 50,50 100,0"/><switch><g fill="#0D0" stroke="#88F" stroke-width="2" requiredExtensions="http://xml.apache.org/batik/ext/colorSwitch/1.0"><batik:colorSwitch id="TransPurple"><solidColor requiredExtensions="NonExistantExtension" solid-color="red"/><solidColor solid-color="#FF00FF" solid-opacity=".5"/><linearGradient><stop offset="0" stop-color="red" stop-opacity=".5"/></linearGradient></batik:colorSwitch><batik:colorSwitch id="SolidPurple"><solidColor solid-color="#FF00FF"/><linearGradient><stop offset="0" stop-color="#FF0"/></linearGradient></batik:colorSwitch><batik:colorSwitch id="orange"><solidColor requiredExtensions="NonExistantExtension" solid-color="orange" solid-opacity="1"/><linearGradient y2="100%"><stop offset=".1" stop-color="#dc143c"/><stop offset=".5" stop-color="gold" stop-opacity=".5"/><stop offset=".9" stop-color="#dc143c"/></linearGradient></batik:colorSwitch><circle cx="85" cy="135" r="50" fill="url(#SolidPurple)"/><circle cx="225" cy="135" r="50" fill="url(#TransPurple)"/><circle cx="365" cy="135" r="50" fill="url(#orange)"/><g fill="none" stroke-width="5"><circle cx="85" cy="275" r="50" stroke="url(#SolidPurple)"/><circle cx="225" cy="275" r="50" stroke="url(#TransPurple)"/><circle cx="365" cy="275" r="50" stroke="url(#orange)"/></g><circle cx="85" cy="415" r="50" fill="url(#SolidPurple)" fill-opacity=".5"/><circle cx="225" cy="415" r="50" fill="url(#TransPurple)" fill-opacity=".5"/><circle cx="365" cy="415" r="50" fill="url(#orange)" fill-opacity=".5"/></g><g fill="red"><circle cx="85" cy="135" r="50"/><circle cx="225" cy="135" r="50"/><circle cx="365" cy="135" r="50"/><circle cx="85" cy="275" r="50"/><circle cx="225" cy="275" r="50"/><circle cx="365" cy="275" r="50"/><circle cx="85" cy="415" r="50"/><circle cx="225" cy="415" r="50"/><circle cx="365" cy="415" r="50"/></g></switch></g><use xlink:href="../batikLogo.svg#Batik_Tag_Box"/></svg>