<?xml-stylesheet type="text/css" href="extension.css" ?><svg xmlns="http://www.w3.org/2000/svg" xmlns:xlink="http://www.w3.org/1999/xlink" id="body" width="450" height="500" viewBox="0 0 450 500"><title>Test of Text vertical-align.</title><g id="content"><text x="50%" y="40" class="title">Test of Text vertical-align</text><g font-family="serif" transform="translate(0,60)"><g fill="#DCDCFF"><rect width="125" height="36" x="12.5" y="0"/><rect width="125" height="36" x="162.5" y="0"/><rect width="125" height="36" x="312.5" y="0"/></g><flowText xmlns="http://xml.apache.org/batik/ext" font-size="24" xml:space="preserve"><flowRegion vertical-align="top"><rect width="125" height="36" x="12.5" y="0"/></flowRegion><flowRegion vertical-align="middle"><rect width="125" height="36" x="162.5" y="0"/></flowRegion><flowRegion vertical-align="bottom"><rect width="125" height="36" x="312.5" y="0"/></flowRegion><flowDiv><flowRegionBreak justification="middle">Try top</flowRegionBreak><flowRegionBreak justification="middle">Try middle</flowRegionBreak><flowRegionBreak justification="middle">Try bottom</flowRegionBreak></flowDiv></flowText></g><g font-family="serif" transform="translate(0,120)"><g fill="#DCDCFF"><rect width="125" height="36" x="12.5" y="0"/><rect width="125" height="36" x="12.5" y="40"/><rect width="125" height="36" x="162.5" y="0"/><rect width="125" height="36" x="162.5" y="40"/><rect width="125" height="36" x="312.5" y="0"/><rect width="125" height="36" x="312.5" y="40"/></g><flowText xmlns="http://xml.apache.org/batik/ext" font-size="24" xml:space="preserve"><flowRegion vertical-align="top"><rect width="125" height="36" x="12.5" y="0"/><rect width="125" height="36" x="12.5" y="40"/></flowRegion><flowRegion vertical-align="middle"><rect width="125" height="36" x="162.5" y="0"/><rect width="125" height="36" x="162.5" y="40"/></flowRegion><flowRegion vertical-align="bottom"><rect width="125" height="36" x="312.5" y="0"/><rect width="125" height="36" x="312.5" y="40"/></flowRegion><flowDiv><flowRegionBreak justification="middle">Try top two lines</flowRegionBreak><flowRegionBreak justification="middle">Middle two lines</flowRegionBreak><flowRegionBreak justification="middle">Bottom two lines</flowRegionBreak></flowDiv></flowText></g><g font-family="serif" transform="translate(0,220)"><g fill="#DCDCFF"><rect width="125" height="72" x="12.5" y="0"/><rect width="125" height="72" x="162.5" y="0"/><rect width="125" height="72" x="312.5" y="0"/></g><flowText xmlns="http://xml.apache.org/batik/ext" font-size="24" xml:space="preserve"><flowRegion vertical-align="top"><rect width="125" height="72" x="12.5" y="0"/></flowRegion><flowRegion vertical-align="middle"><rect width="125" height="72" x="162.5" y="0"/></flowRegion><flowRegion vertical-align="bottom"><rect width="125" height="72" x="312.5" y="0"/></flowRegion><flowDiv><flowRegionBreak justification="middle">Try top two lines</flowRegionBreak><flowRegionBreak justification="middle">Middle two lines</flowRegionBreak><flowRegionBreak justification="middle">Bottom two lines</flowRegionBreak></flowDiv></flowText></g><g font-family="serif" transform="translate(0,320)"><g fill="#DCDCFF"><rect width="125" height="72" x="12.5" y="0"/><rect width="125" height="72" x="162.5" y="0"/><rect width="125" height="72" x="312.5" y="0"/></g><flowText xmlns="http://xml.apache.org/batik/ext" font-size="24" xml:space="preserve"><flowRegion vertical-align="top"><rect width="125" height="72" x="12.5" y="0"/></flowRegion><flowRegion vertical-align="middle"><rect width="125" height="72" x="162.5" y="0"/></flowRegion><flowRegion vertical-align="bottom"><rect width="125" height="72" x="312.5" y="0"/></flowRegion><flowDiv><flowPara justification="middle">Try top</flowPara><flowRegionBreak justification="middle">two lines</flowRegionBreak><flowPara justification="middle">Middle</flowPara><flowRegionBreak justification="middle">two lines</flowRegionBreak><flowPara justification="middle">Bottom</flowPara><flowRegionBreak justification="middle">two lines</flowRegionBreak></flowDiv></flowText></g></g><g font-family="serif" transform="translate(0,405)"><g fill="#DCDCFF"><rect width="125" height="72" x="12.5" y="0"/></g><flowText xmlns="http://xml.apache.org/batik/ext" font-size="24" xml:space="preserve"><flowRegion vertical-align="top"><rect width="125" height="72" x="12.5" y="0"/></flowRegion><flowPara/></flowText></g><use xlink:href="../batikLogo.svg#Batik_Tag_Box"/></svg>