<?xml-stylesheet type="text/css" href="extension.css" ?><svg xmlns="http://www.w3.org/2000/svg" xmlns:batik="http://xml.apache.org/batik/ext" xmlns:svg="http://www.w3.org/2000/svg" xmlns:xlink="http://www.w3.org/1999/xlink" id="body" width="450" height="500" viewBox="0 0 450 500" xml:space="preserve"><title>Solid Color Test (Xlink&gt;</title><defs><path id="squiggle" fill="none" stroke="#000" stroke-width="10" d="M0,0 c50,-50 50,50 100,0 s50,50 100,0 s50,50 100,0 s50,50 100,0"/></defs><g id="testContent" class="legend" style="text-anchor:middle"><text x="225" y="40" class="title">Solid Color Paint Server (Xlink)</text><use x="25" y="135" xlink:href="#squiggle"/><use x="25" y="275" xlink:href="#squiggle"/><use x="25" y="415" xlink:href="#squiggle"/><switch><g fill="#0D0" stroke="#88F" stroke-width="2" requiredExtensions="http://xml.apache.org/batik/ext/solidColor/1.0"><batik:solidColor id="SolidPurple" solid-color="#FF00FF"/><batik:solidColor id="TransPurple" solid-opacity=".5" xlink:href="#SolidPurple"/><batik:solidColor id="SolidOrange" solid-color="orange" xlink:href="#SolidPurple"/><circle cx="85" cy="135" r="50" fill="url(#SolidPurple)"/><circle cx="225" cy="135" r="50" fill="url(#TransPurple)"/><circle cx="365" cy="135" r="50" fill="url(#SolidOrange)"/><g fill="none" stroke-width="5"><circle cx="85" cy="275" r="50" stroke="url(#SolidPurple)"/><circle cx="225" cy="275" r="50" stroke="url(#TransPurple)"/><circle cx="365" cy="275" r="50" stroke="url(#SolidOrange)"/></g><circle cx="85" cy="415" r="50" fill="url(#SolidPurple)" fill-opacity=".5"/><circle cx="225" cy="415" r="50" fill="url(#TransPurple)" fill-opacity=".5"/><circle cx="365" cy="415" r="50" fill="url(#SolidOrange)" fill-opacity=".5"/></g><g fill="red"><circle cx="85" cy="135" r="50"/><circle cx="225" cy="135" r="50"/><circle cx="365" cy="135" r="50"/><circle cx="85" cy="275" r="50"/><circle cx="225" cy="275" r="50"/><circle cx="365" cy="275" r="50"/><circle cx="85" cy="415" r="50"/><circle cx="225" cy="415" r="50"/><circle cx="365" cy="415" r="50"/></g></switch></g><use xlink:href="../batikLogo.svg#Batik_Tag_Box"/></svg>