<svg xmlns="http://www.w3.org/2000/svg" xmlns:xlink="http://www.w3.org/1999/xlink" width="450" height="500" viewBox="0 0 450 500"><title>Chessboard</title><g id="testContent"><defs><filter id="whiteCellFilter" width="1" height="1" x="0%" y="0%" filterUnits="objectBoundingBox"><feTurbulence baseFrequency=".03" numOctaves="3" type="turbulence"/><feColorMatrix type="luminanceToAlpha"/><feComponentTransfer><feFuncA intercept="0" slope=".5" type="linear"/></feComponentTransfer><feComponentTransfer><feFuncA amplitude="1" exponent="1.5" offset="0" type="gamma"/></feComponentTransfer></filter><filter id="blackCellFilter" width="1" height="1" x="0%" y="0%" filterUnits="objectBoundingBox"><feTurbulence baseFrequency=".03" numOctaves="3" type="turbulence"/><feColorMatrix type="luminanceToAlpha"/><feComponentTransfer><feFuncA intercept="0" slope="1.5" type="linear"/></feComponentTransfer><feColorMatrix type="matrix" values="0 0 0 -1 1 0 0 0 -1 1 0 0 0 -1 1 0 0 0 0 1"/></filter><pattern id="chessBoardPattern" width="100" height="100" x="25" y="25" patternUnits="userSpaceOnUse"><rect id="blackCellTop" width="50" height="50" fill="#000" filter="url(#blackCellFilter)"/><rect id="whiteCellTop" width="50" height="50" x="20" y="0" fill="#fff" filter="url(#whiteCellFilter)" transform="translate(30, 0)"/><rect id="whiteCellBottom" width="50" height="50" fill="#000" filter="url(#whiteCellFilter)" transform="translate(0, 50)"/><rect id="blackCellBottom" width="50" height="50" fill="#fff" filter="url(#blackCellFilter)" transform="translate(50, 50)"/></pattern><radialGradient id="light" cx="200" cy="250" r="400" fx="20" fy="20" gradientUnits="userSpaceOnUse"><stop offset="30%" style="stop-color:black;stop-opacity:0"/><stop offset="100%" style="stop-color:black;stop-opacity:.5"/></radialGradient></defs><rect id="chessboard" width="400" height="400" x="25" y="25" fill="url(#chessBoardPattern)"/><rect id="lightSquare" width="400" height="400" x="25" y="25" style="fill:url(#light)"/><defs><radialGradient id="psion" r="100%" fx="20%" fy="24%" gradientUnits="objectBoundingBox"><stop offset="0%" style="stop-color:white"/><stop offset="50%" style="stop-color:black"/></radialGradient><radialGradient id="psion2" r="60%" fx="20%" fy="24%" gradientUnits="objectBoundingBox"><stop offset="0%" style="stop-color:white"/><stop offset="100%" style="stop-color:black"/></radialGradient></defs><g id="shadow" transform="translate(172 168) rotate(120)" style="fill:#000;opacity:.6"><circle cx="19" cy="20" r="10"/><path d="M13 28L24 28C27 28 24 42 32 48L8 48C13 42 13 34 13 28Z"/><rect width="36" height="18" x="2" y="45"/></g><circle cx="100" cy="150" r="18" style="fill:url(#psion2);stroke:#000;stroke-width:2"/><circle cx="100" cy="150" r="10" style="fill:url(#psion)"/></g><use xlink:href="batikLogo.svg#Batik_Tag_Box"/></svg>