<svg xmlns="http://www.w3.org/2000/svg" xmlns:xlink="http://www.w3.org/1999/xlink" width="450" height="500" viewBox="0 0 450 500"><svg id="testContent" width="400" height="400" x="25" y="20" viewBox="0 0 400 400"><defs><radialGradient id="nosePaint" cx="150" cy="160" r="60" fx="130" fy="140" gradientUnits="userSpaceOnUse"><stop offset="0%" style="stop-color:white"/><stop offset="20%" style="stop-color:#ccf"/><stop offset="100%" style="stop-color:#225"/></radialGradient><radialGradient id="eyeBallPaint" r=".5" fx=".2" fy=".2" gradientUnits="objectBoundingBox"><stop offset="0%" style="stop-color:white"/><stop offset="20%" style="stop-color:#ccf"/><stop offset="100%" style="stop-color:#225"/></radialGradient><radialGradient id="patternBall" fx="30%" fy="30%" gradientUnits="objectBoundingBox"><stop offset="0%" style="stop-color:white"/><stop offset="20%" style="stop-color:#668"/><stop offset="100%" style="stop-color:black"/></radialGradient><radialGradient id="yellowPatternBall" fx="30%" fy="30%" gradientUnits="objectBoundingBox"><stop offset="0%" style="stop-color:white"/><stop offset="20%" style="stop-color:yellow"/><stop offset="40%" style="stop-color:orange"/><stop offset="100%" style="stop-color:#420"/></radialGradient><linearGradient id="backgroundGradient" x1="0" x2="400" y1="0" y2="300" gradientUnits="userSpaceOnUse"><stop offset="0%" style="stop-color:white"/><stop offset="50%" style="stop-color:#668"/><stop offset="100%" style="stop-color:black"/></linearGradient><circle id="ball" cx="0" cy="0" r="30" style="fill:url(#patternBall)"/><circle id="yellowBall" cx="0" cy="0" r="30" style="fill:url(#yellowPatternBall)"/><g id="ballRow"><use x="30" y="30" xlink:href="#ball"/><use x="90" y="30" xlink:href="#ball"/><use x="150" y="30" xlink:href="#ball"/><use x="210" y="30" xlink:href="#ball"/><use x="270" y="30" xlink:href="#ball"/><use x="330" y="30" xlink:href="#ball"/><use x="390" y="30" xlink:href="#ball"/><use x="450" y="30" xlink:href="#ball"/></g></defs><rect width="100%" height="300" x="0" y="0" style="fill:url(#backgroundGradient)"/><use x="0" y="270" xlink:href="#ballRow"/><use x="-30" y="300" xlink:href="#ballRow"/><use x="120" y="330" xlink:href="#yellowBall"/><use x="0" y="330" xlink:href="#ballRow"/><use x="-30" y="360" xlink:href="#ballRow"/><use x="0" y="390" xlink:href="#ballRow"/><g id="surprisedFace" transform="translate(50, -30)" style="fill:#fff"><circle cx="90" cy="100" r="30" style="fill:url(#eyeBallPaint)"/><circle cx="102" cy="112" r="15" style="fill:#000;stroke:none"/><circle cx="90" cy="100" r="30" transform="translate(120, 0)" style="fill:url(#eyeBallPaint)"/><circle cx="198" cy="112" r="15" style="fill:#000;stroke:none"/><circle cx="150" cy="160" r="60" style="fill:url(#nosePaint)"/><circle cx="150" cy="260" r="20" style="fill:url(#eyeBallPaint)"/></g></svg><use xlink:href="batikLogo.svg#Batik_Tag_Box"/></svg>