<svg xmlns="http://www.w3.org/2000/svg" xmlns:xlink="http://www.w3.org/1999/xlink" width="450" height="500" viewBox="0 0 450 500" xml:space="preserve"><title>Size of the Sun</title><rect id="background" width="100%" height="100%" x="0" y="0" style="fill:#000"/><style type="text/css">.planet{text-anchor:middle;font-family:Helvetica;font-size:12}</style><defs><radialGradient id="mercuryGradient" fx=".3" fy=".3"><stop style="stop-color:white" offset=".1"/><stop style="stop-color:#444" offset="1"/></radialGradient><g id="mercury" class="planet" transform="scale(.1)"><circle cx="0" cy="0" r="5" transform="scale(10)" style="fill:url(#mercuryGradient)"/><text x="1" y="1" style="fill:#000"><tref xlink:href="#mercuryLegend"/></text><text id="mercuryLegend" x="0" y="0" style="fill:#fff">Mercury</text></g><radialGradient id="venusGradient" fx=".3" fy=".3"><stop style="stop-color:cyan" offset=".1"/><stop style="stop-color:blue" offset="1"/></radialGradient><g id="venus" class="planet" transform="scale(.2)"><circle cx="0" cy="0" r="12" transform="scale(5)" style="fill:url(#venusGradient)"/><text x="1" y="1" style="fill:#000"><tref xlink:href="#venusLegend"/></text><text id="venusLegend" x="0" y="0" style="fill:#fff">Venus</text></g><radialGradient id="earthGradient" fx=".3" fy=".3"><stop style="stop-color:white" offset=".1"/><stop style="stop-color:blue" offset="1"/></radialGradient><g id="earth" class="planet" transform="scale(.2)"><circle cx="0" cy="0" r="13" transform="scale(5)" style="fill:url(#earthGradient)"/><text x="1" y="1" style="fill:#000"><tref xlink:href="#earthLegend"/></text><text id="earthLegend" x="0" y="0" style="fill:#fff">Earth</text></g><radialGradient id="marsGradient" fx=".3" fy=".3"><stop style="stop-color:orange" offset=".1"/><stop style="stop-color:black" offset="1"/></radialGradient><g id="mars" class="planet" transform="scale(.2)"><circle cx="0" cy="0" r="7" transform="scale(5)" style="fill:url(#marsGradient)"/><text x="1" y="1" style="fill:#000"><tref xlink:href="#marsLegend"/></text><text id="marsLegend" x="0" y="0" style="fill:#fff">Mars</text></g><radialGradient id="jupiterGradient" fx=".3" fy=".3"><stop style="stop-color:red" offset="0"/><stop style="stop-color:#a00" offset=".8"/><stop style="stop-color:#600" offset="1"/></radialGradient><g id="jupiter" class="planet" transform="scale(2)"><circle cx="0" cy="0" r="143" transform="scale(.5)" style="fill:url(#jupiterGradient)"/><text x="1" y="1" style="fill:#000"><tref xlink:href="#jupiterLegend"/></text><text id="jupiterLegend" x="0" y="0" style="fill:#fff">Jupiter</text></g><radialGradient id="saturnGradient" fx=".3" fy=".3"><stop style="stop-color:yellow" offset=".1"/><stop style="stop-color:orange" offset="1"/></radialGradient><radialGradient id="ray" fx=".5" fy=".5"><stop style="stop-color:yellow" offset=".3"/><stop style="stop-color:Sienna" offset="1"/></radialGradient><g id="saturn" class="planet" transform="scale(2)"><g transform="scale(.5)"><circle cx="0" cy="0" r="121" style="fill:url(#saturnGradient)"/><g><path d="M-119 -21 L-120 -14 A180 20 180 1 0 120 -14 L119 -21 A240 25 180 1 1 -119 -21" transform="rotate(45)" style="fill:url(#ray)"/><path d="M-119 -24 L-120 -22 A250 28 180 1 0 120 -22 L119 -24 A300 30 180 1 1 -119 -24" transform="rotate(45)" style="fill:url(#ray)"/></g></g><text x="1" y="1" style="fill:#000"><tref xlink:href="#saturnLegend"/></text><text id="saturnLegend" x="0" y="0" style="fill:#fff">Saturn</text></g><radialGradient id="uranusGradient" fx=".3" fy=".3"><stop style="stop-color:#0a0" offset=".1"/><stop style="stop-color:green" offset="1"/></radialGradient><g id="uranus" class="planet"><circle cx="0" cy="0" r="51" style="fill:url(#uranusGradient)"/><text x="1" y="1" style="fill:#000"><tref xlink:href="#uranusLegend"/></text><text id="uranusLegend" x="0" y="0" style="fill:#fff">Uranus</text></g><radialGradient id="neptuneGradient" fx=".3" fy=".3"><stop style="stop-color:CornFlowerBlue" offset=".1"/><stop style="stop-color:MediumBlue" offset="1"/></radialGradient><g id="neptune" class="planet"><circle cx="0" cy="0" r="50" style="fill:url(#neptuneGradient)"/><text x="1" y="1" style="fill:#000"><tref xlink:href="#neptuneLegend"/></text><text id="neptuneLegend" x="0" y="0" style="fill:#fff">Neptune</text></g><g id="pluto" class="planet" transform="scale(.05)"><circle cx="0" cy="0" r="2" transform="scale(20)" style="fill:#ea8"/><text x="1" y="1" style="fill:#000"><tref xlink:href="#plutoLegend"/></text><text id="plutoLegend" x="0" y="0" style="fill:#fff">Pluto</text></g><radialGradient id="sunGradient" fx=".3" fy=".3"><stop style="stop-color:white" offset=".1"/><stop style="stop-color:Gold" offset=".8"/><stop style="stop-color:orange" offset="1"/></radialGradient><clipPath id="clip"><rect width="2780" height="1000" x="-143" y="-500"/></clipPath><g id="sun"><circle cx="1247" cy="0" r="1390" style="fill:url(#sunGradient);clip-path:url(#clip)"/></g><g id="line"><use transform="translate(0 0)" xlink:href="#jupiter"/><use transform="translate(264 0)" xlink:href="#saturn"/><use transform="translate(436 0)" xlink:href="#uranus"/><use transform="translate(537 0)" xlink:href="#neptune"/><use transform="translate(600 0)" xlink:href="#earth"/><use transform="translate(625 0)" xlink:href="#venus"/><use transform="translate(644 0)" xlink:href="#mars"/><use transform="translate(656 0)" xlink:href="#mercury"/><use transform="translate(663 0)" xlink:href="#pluto"/></g></defs><g id="body"><g transform="translate(50 280)scale(.14)"><use xlink:href="#sun"/><g style="fill:none;stroke:#000"><line x1="665" x2="665" y1="-300" y2="0"/><line x1="1473" x2="1473" y1="-300" y2="0"/><line x1="2281" x2="2281" y1="-300" y2="0"/></g><use transform="translate(0 0)" xlink:href="#line"/><use transform="translate(808 0)" xlink:href="#line"/><use transform="translate(1616 0)" xlink:href="#line"/><g transform="translate(2402 0)"><use transform="translate(0 0)" xlink:href="#saturn"/><use transform="translate(134 0)" xlink:href="#earth"/><use transform="translate(160 0)" xlink:href="#earth"/><use transform="translate(186 0)" xlink:href="#earth"/><use transform="translate(212 0)" xlink:href="#earth"/><use transform="translate(230 0)" xlink:href="#mercury"/></g></g><g id="legend" style="font-family:Helvetica"><text x="50%" y="50" style="font-size:24;text-anchor:middle;fill:#fff">Size of the Sun</text><g style="font-size:12;text-anchor:middle;fill:#fff"><text x="50%" y="100">You could line up all of the planets along the</text><text x="50%" y="114">Sun&apos;s 1,392,000 kilometer equator three times and still have room left</text><text x="50%" y="128">for 1 Saturn, 4 Earths, and a Mercury.</text></g><g style="font-size:12;text-anchor:end;fill:#000"><text x="144" y="250">One time...</text><text x="257" y="250">Two times...</text><text x="370" y="250">3 times...</text></g></g></g><use xlink:href="batikLogo.svg#Batik_Tag_Box"/></svg>